<svg xmlns="http://www.w3.org/2000/svg" xmlns:xlink="http://www.w3.org/1999/xlink" version="1.1" width="500" height="500" viewBox="0 0 500 500" xml:space="preserve">
<desc>Created with Fabric.js 4.6.0</desc>
    <defs>
</defs>
    <g transform="matrix(1 0 0 1 250 109.46)" id="QFvdNeAqlk19Id3QKTv75"  >
<path style="stroke: none; stroke-width: 1; stroke-dasharray: none; stroke-linecap: butt; stroke-dashoffset: 0; stroke-linejoin: miter; stroke-miterlimit: 4; fill: rgb(156,163,175); fill-opacity: 0.85; fill-rule: nonzero; opacity: 1;" vector-effect="non-scaling-stroke"  transform=" translate(-232.53, -91.98)" d="M 156.766 143.002 L 194.143 143.002 L 194.143 168.941 L 180.173 168.941 C 176.031 168.941 172.673 172.298 172.673 176.441 C 172.673 180.584 176.031 183.941 180.173 183.941 L 284.882 183.941 C 289.025 183.941 292.382 180.584 292.382 176.441 C 292.382 172.298 289.025 168.941 284.882 168.941 L 270.912 168.941 L 270.912 143.002 L 308.289 143.002 C 323.017 143.002 334.998 131.02100000000002 334.998 116.293 L 334.998 26.737 C 334.998 12.008999999999999 323.017 0.027999999999998693 308.289 0.027999999999998693 L 156.766 0.027999999999998693 C 142.03799999999998 0.027999999999998693 130.057 12.008999999999999 130.057 26.737 L 130.057 116.29299999999999 C 130.057 131.021 142.039 143.002 156.766 143.002 z M 255.913 168.941 L 209.143 168.941 L 209.143 143.002 L 255.913 143.002 L 255.913 168.941 z M 145.057 26.737 C 145.057 20.281 150.309 15.027999999999999 156.766 15.027999999999999 L 308.29 15.027999999999999 C 314.74600000000004 15.027999999999999 319.999 20.281 319.999 26.737 L 319.999 116.29299999999999 C 319.999 122.749 314.74600000000004 128.00199999999998 308.29 128.00199999999998 L 156.766 128.00199999999998 C 150.309 128.00199999999998 145.057 122.74899999999998 145.057 116.29299999999998 L 145.057 26.737 z" stroke-linecap="round" />
</g>
    <g transform="matrix(1 0 0 1 119.94 390.54)" id="JeorVM3AMmQZo0sIXsm6H"  >
<path style="stroke: none; stroke-width: 1; stroke-dasharray: none; stroke-linecap: butt; stroke-dashoffset: 0; stroke-linejoin: miter; stroke-miterlimit: 4; fill: rgb(156,163,175); fill-opacity: 0.85; fill-rule: nonzero; opacity: 1;" vector-effect="non-scaling-stroke"  transform=" translate(-102.47, -373.07)" d="M 178.233 281.115 L 26.709 281.115 C 11.981 281.115 0 293.097 0 307.824 L 0 397.38 C 0 412.108 11.981 424.089 26.709 424.089 L 64.086 424.089 L 64.086 450.028 L 50.116 450.028 C 45.974 450.028 42.616 453.38500000000005 42.616 457.528 C 42.616 461.671 45.974 465.028 50.116 465.028 L 154.824 465.028 C 158.966 465.028 162.324 461.671 162.324 457.528 C 162.324 453.38500000000005 158.966 450.028 154.824 450.028 L 140.85500000000002 450.028 L 140.85500000000002 424.089 L 178.23200000000003 424.089 C 192.96000000000004 424.089 204.94100000000003 412.108 204.94100000000003 397.38 L 204.94100000000003 307.824 C 204.942 293.097 192.96 281.115 178.233 281.115 z M 125.856 450.028 L 79.08599999999998 450.028 L 79.08599999999998 424.089 L 125.856 424.089 L 125.856 450.028 z M 189.942 397.38 C 189.942 403.836 184.69 409.089 178.233 409.089 L 26.709 409.089 C 20.252 409.089 15 403.836 15 397.38 L 15 307.824 C 15 301.368 20.252 296.115 26.709 296.115 L 178.233 296.115 C 184.69 296.115 189.942 301.368 189.942 307.824 L 189.942 397.38 z" stroke-linecap="round" />
</g>
    <g transform="matrix(1 0 0 1 380.06 390.54)" id="avIe4QxPXSy7fdjD1B-D0"  >
<path style="stroke: none; stroke-width: 1; stroke-dasharray: none; stroke-linecap: butt; stroke-dashoffset: 0; stroke-linejoin: miter; stroke-miterlimit: 4; fill: rgb(156,163,175); fill-opacity: 0.85; fill-rule: nonzero; opacity: 1;" vector-effect="non-scaling-stroke"  transform=" translate(-362.59, -373.07)" d="M 438.348 281.115 L 286.823 281.115 C 272.09499999999997 281.115 260.114 293.096 260.114 307.824 L 260.114 397.38 C 260.114 412.108 272.09499999999997 424.089 286.823 424.089 L 324.2 424.089 L 324.2 450.028 L 310.231 450.028 C 306.088 450.028 302.731 453.38500000000005 302.731 457.528 C 302.731 461.671 306.088 465.028 310.231 465.028 L 414.93899999999996 465.028 C 419.08199999999994 465.028 422.43899999999996 461.671 422.43899999999996 457.528 C 422.43899999999996 453.38500000000005 419.08199999999994 450.028 414.93899999999996 450.028 L 400.96999999999997 450.028 L 400.96999999999997 424.089 L 438.347 424.089 C 453.075 424.089 465.056 412.108 465.056 397.38 L 465.056 307.824 C 465.057 293.097 453.075 281.115 438.348 281.115 z M 385.971 450.028 L 339.2 450.028 L 339.2 424.089 L 385.971 424.089 L 385.971 450.028 z M 450.057 397.38 C 450.057 403.836 444.80400000000003 409.089 438.348 409.089 L 286.823 409.089 C 280.36699999999996 409.089 275.114 403.836 275.114 397.38 L 275.114 307.824 C 275.114 301.368 280.36699999999996 296.115 286.823 296.115 L 438.347 296.115 C 444.803 296.115 450.056 301.368 450.056 307.824 L 450.056 397.38 z" stroke-linecap="round" />
</g>
    <g transform="matrix(1 0 0 1 250 250)" id="dA31LQBd-lMDoWBxl_nUI"  >
<path style="stroke: none; stroke-width: 1; stroke-dasharray: none; stroke-linecap: butt; stroke-dashoffset: 0; stroke-linejoin: miter; stroke-miterlimit: 4; fill: rgb(156,163,175); fill-opacity: 0.85; fill-rule: nonzero; opacity: 1;" vector-effect="non-scaling-stroke"  transform=" translate(-232.53, -232.53)" d="M 355.086 258.615 C 355.086 262.758 358.44300000000004 266.115 362.586 266.115 C 366.729 266.115 370.086 262.758 370.086 258.615 L 370.086 232.52800000000002 C 370.086 228.38500000000002 366.729 225.02800000000002 362.586 225.02800000000002 L 240.028 225.02800000000002 L 240.028 206.44100000000003 C 240.028 202.29800000000003 236.671 198.94100000000003 232.528 198.94100000000003 C 228.386 198.94100000000003 225.028 202.29800000000003 225.028 206.44100000000003 L 225.028 225.02800000000002 L 102.471 225.02800000000002 C 98.32900000000001 225.02800000000002 94.971 228.38500000000002 94.971 232.52800000000002 L 94.971 258.615 C 94.971 262.758 98.32900000000001 266.115 102.471 266.115 C 106.613 266.115 109.971 262.758 109.971 258.615 L 109.971 240.02800000000002 L 355.086 240.02800000000002 L 355.086 258.615 z" stroke-linecap="round" />
</g>
</svg>
